<svg width="43" height="38" viewBox="0 0 43 38" fill="none" xmlns="http://www.w3.org/2000/svg">
<g clip-path="url(#clip0_3_195)">
<path fill-rule="evenodd" clip-rule="evenodd" d="M9.78274 18.9388C17.3607 18.9388 22.6652 11.8367 22.6652 6.05763C22.6652 1.87995 18.7385 0 15.0873 0C6.75154 0 2.20477 7.58944 2.20477 12.8812C2.20477 17.0588 6.13153 18.9388 9.78274 18.9388Z" fill="#EA1D2C"/>
<path fill-rule="evenodd" clip-rule="evenodd" d="M30.1049 18.9388C37.6829 18.9388 42.9874 11.8367 42.9874 6.05763C42.9874 1.87995 39.0606 0 35.4095 0C27.0737 0 22.5269 7.58944 22.5269 12.8812C22.458 17.0588 26.4536 18.9388 30.1049 18.9388Z" fill="#EA1D2C"/>
<path fill-rule="evenodd" clip-rule="evenodd" d="M33.6187 32.1684C28.934 36.2766 22.5961 38.3654 15.7759 37.9477C7.1646 37.3906 1.17114 30.5669 0 23.6738H0.413338C2.34227 28.0605 7.09571 32.1684 13.0203 32.8646C18.8071 33.4913 25.9028 30.8455 29.7608 27.016L25.4206 23.6738L38.372 23.7435L35.6165 37.7387L33.6187 32.1684Z" fill="#EA1D2C"/>
</g>
<defs>
<clipPath id="clip0_3_195">
<rect width="43" height="38" fill="white"/>
</clipPath>
</defs>
</svg>
