<svg width="16" height="16" viewBox="0 0 16 16" fill="none" xmlns="http://www.w3.org/2000/svg">
<path d="M13.0625 0.291016H2.55024C1.27375 0.291016 0.297607 1.26716 0.297607 2.54365V13.0559C0.297607 14.3324 1.27375 15.3086 2.55024 15.3086H13.0625C14.339 15.3086 15.3152 14.3324 15.3152 13.0559V2.54365C15.3152 1.26716 14.339 0.291016 13.0625 0.291016ZM4.80287 11.5542C4.80287 12.0047 4.50252 12.3051 4.05199 12.3051C3.60147 12.3051 3.30112 12.0047 3.30112 11.5542V8.55066C3.30112 8.10014 3.60147 7.79979 4.05199 7.79979C4.50252 7.79979 4.80287 8.10014 4.80287 8.55066V11.5542ZM8.55726 11.5542C8.55726 12.0047 8.25691 12.3051 7.80638 12.3051C7.35585 12.3051 7.0555 12.0047 7.0555 11.5542V4.0454C7.0555 3.59488 7.35585 3.29452 7.80638 3.29452C8.25691 3.29452 8.55726 3.59488 8.55726 4.0454V11.5542ZM12.3116 11.5542C12.3116 12.0047 12.0113 12.3051 11.5608 12.3051C11.1102 12.3051 10.8099 12.0047 10.8099 11.5542V7.04891C10.8099 6.59838 11.1102 6.29803 11.5608 6.29803C12.0113 6.29803 12.3116 6.59838 12.3116 7.04891V11.5542Z" fill="#222222"/>
</svg>
