<svg width="101" height="107" viewBox="0 0 101 107" fill="none" xmlns="http://www.w3.org/2000/svg">
<path d="M30.1623 45.0793C29.1747 45.9067 28.0271 46.227 26.399 46.3871V37.5794C28.3473 38.22 29.6551 38.8873 30.4825 39.5278C31.1231 40.1684 31.6302 41.1559 31.6302 42.3036C31.4703 43.4512 30.9899 44.4121 30.1623 45.0793ZM23.1431 22.0459C21.6751 22.206 20.5275 22.6865 19.7001 23.3537C18.8727 24.1811 18.3923 25.1419 18.3923 26.1295C18.3923 27.2771 18.7125 28.0778 19.3798 28.7451C20.0203 29.3856 21.3281 30.0529 23.1431 30.6934V22.0459ZM99.9031 40.6755V94.9095C99.9031 101.609 94.512 107 87.8128 107H13.1877C6.48854 107 1.09717 101.609 1.09717 94.9095V12.0905C1.09717 5.39137 6.48854 0 13.1877 0H59.8951C64.619 0 66.9143 1.30781 69.8502 4.40384L95.3391 30.213C98.7557 33.4692 99.9031 35.6044 99.9031 40.6755ZM46.1762 28.5849H64.1383C66.2735 28.5849 67.9021 26.9568 67.9021 24.9818V22.206C67.9021 20.2577 66.2735 18.6029 64.1383 18.6029H46.1762V28.5849ZM23.1431 36.7521V46.3871C20.2072 45.9067 17.4314 44.5989 14.6557 42.1434L11.0525 46.3871C14.6557 49.4832 18.7392 51.2981 23.1431 51.7785V55.355H26.2391V51.7518C29.6821 51.5917 32.271 50.6041 34.4062 48.8159C36.3546 47.0277 37.5023 44.5722 37.5023 41.7965C37.5023 38.8606 36.6749 36.7254 34.8866 35.2574C33.0984 33.7895 30.3227 32.4817 26.5594 31.6543H26.3992V22.3395C29.0149 22.6598 31.3102 23.8074 33.4187 25.2754L36.6749 20.7114C33.4187 18.5762 29.9757 17.2684 26.3725 17.1083V14.3325H23.2765V16.788C20.1805 16.9481 17.5649 17.9356 15.5898 19.7239C13.6414 21.5121 12.4938 23.9676 12.4938 26.7433C12.4938 29.5191 13.4813 31.6543 15.1094 33.2824C16.7642 34.6169 19.3798 35.9247 23.1431 36.7521ZM90.268 89.6782C90.268 87.7296 88.6399 86.0751 86.5047 86.0751H14.1483C12.0131 86.0751 10.5451 87.7032 10.5451 89.6782V92.454C10.5451 94.4021 12.1732 96.0571 14.1483 96.0571H86.5047C88.4534 96.0571 90.268 94.429 90.268 92.454V89.6782ZM90.268 67.1252C90.268 65.1766 88.6399 63.5221 86.5047 63.5221H14.1483C12.0131 63.5221 10.5451 65.1502 10.5451 67.1252V69.901C10.5451 71.8491 12.1732 73.5041 14.1483 73.5041H86.5047C88.4534 73.5041 90.268 71.876 90.268 69.901V67.1252ZM90.268 44.5722C90.268 42.6238 88.6399 40.9691 86.5047 40.9691H46.1762V50.9244H86.5314C88.4801 50.9244 90.2947 49.2963 90.2947 47.3213V44.5722H90.268Z" fill="white" stroke="white" stroke-width="1.99551"/>
</svg>
