<svg width="108" height="113" viewBox="0 0 108 113" fill="none" xmlns="http://www.w3.org/2000/svg">
<path d="M66.8488 31.0097C59.7156 25.8751 48.1877 25.8475 41.0986 31.0097C34.0096 36.1443 34.0538 44.5086 41.187 49.6432C48.3202 54.7778 59.8481 54.7778 66.915 49.6432C74.0261 44.481 73.982 36.1443 66.8488 31.0097ZM63.5803 39.098C62.962 39.3465 62.3657 39.5949 61.7253 39.8158C61.3498 39.9538 61.129 39.9814 60.9523 39.871C60.864 39.8158 60.7756 39.6777 60.7094 39.5121C60.2898 38.6839 59.6714 37.9662 58.8101 37.3589C58.7218 37.2761 58.6114 37.2209 58.501 37.1381C58.236 36.9724 57.9489 36.8068 57.6176 36.724C56.4251 36.3927 55.3871 36.9448 55.5417 37.8558C55.6079 38.3251 55.8067 38.7668 56.0496 39.2084C56.4692 39.9538 56.933 40.6991 57.2422 41.4721C58.236 43.9565 56.0717 46.3858 52.6266 46.6342C51.3678 46.7171 50.1973 46.5238 49.0931 46.0821C48.6073 45.8889 48.2539 45.8889 47.8785 46.1926C47.5251 46.4686 47.1276 46.7447 46.7522 47.0207C46.4209 47.2692 46.0676 47.2692 45.7142 47.0207C45.4713 46.8551 45.2284 46.6895 44.9855 46.5238C44.8088 46.4134 44.6542 46.2754 44.4775 46.1374C44.1242 45.8889 44.1683 45.6129 44.5217 45.3368C44.7867 45.1436 45.0738 44.9227 45.3388 44.7295C45.9572 44.2878 45.9572 44.2326 45.4492 43.7357C44.8088 43.1008 44.2346 42.4383 43.8812 41.6929C43.5942 41.1132 43.6825 40.9752 44.3892 40.6715C44.9413 40.4507 45.4713 40.2298 46.0234 40.009C46.4209 39.8434 46.6418 39.8158 46.8184 39.9262C46.9068 40.009 46.9951 40.1194 47.0614 40.3126C47.4368 41.1408 48.011 41.9138 48.7619 42.6039C48.8944 42.7143 49.0269 42.8247 49.1594 42.9351C49.5569 43.2388 50.0206 43.4596 50.5728 43.6253C51.9199 44.0117 53.1787 43.3216 53.0241 42.2726C52.9799 41.9138 52.8253 41.5825 52.6487 41.2236C52.1849 40.3679 51.5886 39.5397 51.2574 38.6287C50.7494 37.1657 50.9703 35.813 52.6266 34.764C54.4817 33.577 56.5576 33.4942 58.7439 34.2395C59.6493 34.5432 59.6494 34.5432 60.334 34.0463C60.5769 33.8806 60.7977 33.715 61.0406 33.5494C61.5707 33.1905 61.7473 33.1905 62.2774 33.5494C62.3436 33.577 62.3878 33.6322 62.432 33.6598C62.5424 33.7426 62.6528 33.8254 62.7411 33.9082C63.8453 34.7088 63.8453 34.7088 62.7632 35.5093C61.9903 36.0614 61.9903 36.0891 62.6307 36.724C63.1386 37.2209 63.5362 37.773 63.8453 38.3251C64.0883 38.7115 63.9999 38.9324 63.5803 39.098ZM107.329 48.4838L42.5341 1.74816C41.6507 1.11324 40.1932 1.11324 39.3098 1.74816L0.706694 29.7951C-0.176673 30.43 -0.176673 31.479 0.706694 32.1415L65.4796 78.8771C66.385 79.5397 67.8205 79.5121 68.7039 78.8771L107.329 50.8302C108.212 50.1953 108.235 49.1463 107.329 48.4838ZM73.5624 68.0835C73.209 67.6418 72.7673 67.2553 72.2594 66.8965C68.9689 64.5224 63.6466 64.5224 60.356 66.8965C60.1131 67.0897 59.8923 67.2553 59.6714 67.4762L16.0331 35.951C16.4527 35.7302 16.8502 35.5093 17.2257 35.2333C20.4941 32.8592 20.472 28.9945 17.1815 26.6205C16.8281 26.372 16.4306 26.1236 16.0331 25.9303L34.0317 12.8731C34.3188 13.1491 34.628 13.4528 34.9813 13.7012C38.2719 16.0753 43.6162 16.0753 46.8847 13.7012C47.2601 13.4252 47.5914 13.1491 47.8564 12.8455L91.6272 44.4534C91.053 44.7019 90.5009 45.0055 90.0151 45.3644C86.7466 47.7385 86.7687 51.6032 90.0592 53.9772C90.5672 54.3361 91.1414 54.6398 91.7376 54.9158L73.5624 68.0835ZM78.8405 56.158L75.9916 58.2284C75.55 58.5321 74.8433 58.5597 74.4016 58.2284L69.3885 54.6122C68.9468 54.2809 68.9468 53.784 69.3885 53.4527L72.2373 51.3823C72.679 51.0787 73.3857 51.0511 73.8274 51.3823L78.8405 54.9986C79.2822 55.3299 79.2822 55.8544 78.8405 56.158ZM38.6473 27.145L35.7984 29.2154C35.3568 29.519 34.6501 29.5466 34.2084 29.2154L29.1953 25.5991C28.7536 25.2678 28.7536 24.7709 29.1953 24.4396L32.0441 22.3693C32.4858 22.0656 33.1925 22.038 33.6342 22.3693L38.6473 25.9855C39.089 26.3168 39.089 26.8413 38.6473 27.145ZM102.956 62.8661L107.992 66.51L67.5113 95.9096L66.1863 94.971L62.454 92.2933L0 47.1311L4.99102 43.5149L67.4671 88.6218L102.956 62.8661ZM102.868 78.7943L107.903 82.4382L67.5776 111.727L66.2746 110.789L62.5424 108.111L0 62.8661L4.99102 59.2498L67.5555 104.467L102.868 78.7943Z" fill="white" stroke="white" stroke-width="1.63586"/>
</svg>
