<svg width="19" height="13" viewBox="0 0 19 13" fill="none" xmlns="http://www.w3.org/2000/svg">
<path d="M1.98708 0.820801C1.539 0.820801 1.10928 0.998798 0.792443 1.31564C0.475605 1.63247 0.297607 2.0622 0.297607 2.51027L0.297607 4.19975C0.297607 4.34911 0.35694 4.49235 0.462553 4.59796C0.568165 4.70357 0.711407 4.76291 0.860765 4.76291C1.30884 4.76291 1.73857 4.9409 2.0554 5.25774C2.37224 5.57458 2.55024 6.0043 2.55024 6.45238C2.55024 6.90046 2.37224 7.33018 2.0554 7.64702C1.73857 7.96386 1.30884 8.14185 0.860765 8.14185C0.711407 8.14185 0.568165 8.20119 0.462553 8.3068C0.35694 8.41241 0.297607 8.55565 0.297607 8.70501L0.297607 10.3945C0.297607 10.8426 0.475605 11.2723 0.792443 11.5891C1.10928 11.906 1.539 12.084 1.98708 12.084H16.6292C17.0773 12.084 17.507 11.906 17.8238 11.5891C18.1407 11.2723 18.3187 10.8426 18.3187 10.3945V8.70501C18.3187 8.55565 18.2593 8.41241 18.1537 8.3068C18.0481 8.20119 17.9049 8.14185 17.7555 8.14185C17.3074 8.14185 16.8777 7.96386 16.5609 7.64702C16.244 7.33018 16.066 6.90046 16.066 6.45238C16.066 6.0043 16.244 5.57458 16.5609 5.25774C16.8777 4.9409 17.3074 4.76291 17.7555 4.76291C17.9049 4.76291 18.0481 4.70357 18.1537 4.59796C18.2593 4.49235 18.3187 4.34911 18.3187 4.19975V2.51027C18.3187 2.0622 18.1407 1.63247 17.8238 1.31564C17.507 0.998798 17.0773 0.820801 16.6292 0.820801H1.98708Z" fill="#222222"/>
</svg>
