<svg width="46" height="34" viewBox="0 0 46 34" fill="none" xmlns="http://www.w3.org/2000/svg">
<path d="M12.9004 16.9617C16.6283 16.9617 19.6504 13.9396 19.6504 10.2117C19.6504 6.48375 16.6283 3.46167 12.9004 3.46167C9.17247 3.46167 6.15039 6.48375 6.15039 10.2117C6.15039 13.9396 9.17247 16.9617 12.9004 16.9617Z" fill="#262626"/>
<path d="M20.5879 20.7117C17.9479 19.371 15.0341 18.8367 12.9004 18.8367C8.72102 18.8367 0.150391 21.3998 0.150391 26.5242V30.4617H14.2129V28.9551C14.2129 27.1739 14.9629 25.3879 16.2754 23.8992C17.3226 22.7104 18.7888 21.607 20.5879 20.7117Z" fill="#262626"/>
<path d="M30.5254 19.9617C25.6438 19.9617 15.9004 22.9767 15.9004 28.9617V33.4617H45.1504V28.9617C45.1504 22.9767 35.407 19.9617 30.5254 19.9617Z" fill="#262626"/>
<path d="M30.5254 16.9617C35.0817 16.9617 38.7754 13.268 38.7754 8.71167C38.7754 4.15532 35.0817 0.46167 30.5254 0.46167C25.969 0.46167 22.2754 4.15532 22.2754 8.71167C22.2754 13.268 25.969 16.9617 30.5254 16.9617Z" fill="#262626"/>
</svg>
