<svg width="51" height="47" viewBox="0 0 51 47" fill="none" xmlns="http://www.w3.org/2000/svg">
<path d="M4.81869 6.83977H23.0435C23.5959 6.83977 24.1256 6.62448 24.5162 6.24125C24.9068 5.85803 25.1263 5.33826 25.1263 4.7963C25.1263 4.25433 24.9068 3.73457 24.5162 3.35134C24.1256 2.96811 23.5959 2.75282 23.0435 2.75282H3.4232C3.00194 2.74195 2.58262 2.81262 2.18921 2.9608C1.79581 3.10898 1.43601 3.33177 1.1304 3.61642C0.824784 3.90108 0.579337 4.24204 0.408083 4.6198C0.236828 4.99756 0.143124 5.40473 0.132324 5.81804V11.9485C0.143124 12.3618 0.236828 12.7689 0.408083 13.1467C0.579337 13.5245 0.824784 13.8654 1.1304 14.1501C1.43601 14.4347 1.79581 14.6575 2.18921 14.8057C2.58262 14.9539 3.00194 15.0246 3.4232 15.0137H23.0435C23.5959 15.0137 24.1256 14.7984 24.5162 14.4152C24.9068 14.0319 25.1263 13.5122 25.1263 12.9702C25.1263 12.4282 24.9068 11.9085 24.5162 11.5252C24.1256 11.142 23.5959 10.9267 23.0435 10.9267H4.81869C4.68059 10.9267 4.54815 10.8729 4.4505 10.7771C4.35284 10.6813 4.29798 10.5514 4.29798 10.4159V7.37108C4.29518 7.30229 4.30657 7.23366 4.33148 7.1693C4.35639 7.10494 4.3943 7.04618 4.44293 6.99656C4.49157 6.94693 4.54992 6.90746 4.61449 6.88052C4.67907 6.85358 4.74852 6.83972 4.81869 6.83977Z" fill="#262626"/>
<path d="M44.7257 13.9919C44.6612 13.9022 44.6265 13.7951 44.6265 13.6853C44.6265 13.5756 44.6612 13.4685 44.7257 13.3788C45.7416 11.5856 46.0656 9.49352 45.6387 7.48515C45.2117 5.47677 44.0622 3.68626 42.4004 2.44098C40.7385 1.1957 38.6754 0.578854 36.5881 0.703217C34.5009 0.827579 32.5289 1.68484 31.0329 3.11827C29.5369 4.5517 28.6167 6.46553 28.4406 8.50984C28.2644 10.5541 28.8442 12.5924 30.0737 14.2518C31.3033 15.9113 33.1006 17.0811 35.137 17.5474C37.1734 18.0137 39.3128 17.7454 41.1641 16.7914C41.2555 16.7281 41.3646 16.6941 41.4765 16.6941C41.5884 16.6941 41.6975 16.7281 41.7889 16.7914L46.5586 21.6753C46.7522 21.8669 46.9826 22.0189 47.2364 22.1226C47.4902 22.2264 47.7625 22.2798 48.0374 22.2798C48.3124 22.2798 48.5846 22.2264 48.8384 22.1226C49.0922 22.0189 49.3226 21.8669 49.5162 21.6753C49.7114 21.4854 49.8664 21.2594 49.9721 21.0103C50.0779 20.7613 50.1323 20.4942 50.1323 20.2245C50.1323 19.9547 50.0779 19.6876 49.9721 19.4386C49.8664 19.1896 49.7114 18.9636 49.5162 18.7736L44.7257 13.9919ZM36.9984 13.7466C36.1004 13.7466 35.2225 13.4854 34.4758 12.9959C33.7291 12.5064 33.1471 11.8106 32.8035 10.9966C32.4598 10.1826 32.3699 9.28692 32.5451 8.42278C32.7203 7.55864 33.1527 6.76487 33.7877 6.14186C34.4228 5.51885 35.2318 5.09457 36.1126 4.92268C36.9934 4.75079 37.9063 4.83901 38.736 5.17619C39.5657 5.51336 40.2748 6.08434 40.7738 6.81692C41.2727 7.54951 41.539 8.41079 41.539 9.29186C41.5335 10.4717 41.0534 11.6017 40.203 12.4359C39.3527 13.2702 38.201 13.7413 36.9984 13.7466Z" fill="#262626"/>
<path d="M0.132324 33.4048C0.132324 34.2178 0.461485 34.9974 1.04739 35.5723C1.6333 36.1471 2.42797 36.4701 3.25657 36.4701C4.08517 36.4701 4.87983 36.1471 5.46574 35.5723C6.05165 34.9974 6.38081 34.2178 6.38081 33.4048C6.38081 32.5919 6.05165 31.8123 5.46574 31.2374C4.87983 30.6626 4.08517 30.3396 3.25657 30.3396C2.42797 30.3396 1.6333 30.6626 1.04739 31.2374C0.461485 31.8123 0.132324 32.5919 0.132324 33.4048Z" fill="#262626"/>
<path d="M0.132324 43.6223C0.132324 44.4353 0.461485 45.2149 1.04739 45.7897C1.6333 46.3646 2.42797 46.6875 3.25657 46.6875C4.08517 46.6875 4.87983 46.3646 5.46574 45.7897C6.05165 45.2149 6.38081 44.4353 6.38081 43.6223C6.38081 42.8094 6.05165 42.0297 5.46574 41.4549C4.87983 40.88 4.08517 40.5571 3.25657 40.5571C2.42797 40.5571 1.6333 40.88 1.04739 41.4549C0.461485 42.0297 0.132324 42.8094 0.132324 43.6223Z" fill="#262626"/>
<path d="M30.3334 31.3614H10.5465C9.99408 31.3614 9.46431 31.5767 9.0737 31.96C8.68309 32.3432 8.46365 32.863 8.46365 33.4049C8.46365 33.9469 8.68309 34.4667 9.0737 34.8499C9.46431 35.2331 9.99408 35.4484 10.5465 35.4484H30.3334C30.8858 35.4484 31.4156 35.2331 31.8062 34.8499C32.1968 34.4667 32.4162 33.9469 32.4162 33.4049C32.4162 32.863 32.1968 32.3432 31.8062 31.96C31.4156 31.5767 30.8858 31.3614 30.3334 31.3614Z" fill="#262626"/>
<path d="M0.132324 23.1876C0.132324 24.0006 0.461485 24.7802 1.04739 25.3551C1.6333 25.9299 2.42797 26.2528 3.25657 26.2528C4.08517 26.2528 4.87983 25.9299 5.46574 25.3551C6.05165 24.7802 6.38081 24.0006 6.38081 23.1876C6.38081 22.3747 6.05165 21.595 5.46574 21.0202C4.87983 20.4453 4.08517 20.1224 3.25657 20.1224C2.42797 20.1224 1.6333 20.4453 1.04739 21.0202C0.461485 21.595 0.132324 22.3747 0.132324 23.1876Z" fill="#262626"/>
<path d="M30.3334 21.144H10.5465C9.99408 21.144 9.46431 21.3593 9.0737 21.7425C8.68309 22.1257 8.46365 22.6455 8.46365 23.1875C8.46365 23.7294 8.68309 24.2492 9.0737 24.6324C9.46431 25.0156 9.99408 25.2309 10.5465 25.2309H30.3334C30.8858 25.2309 31.4156 25.0156 31.8062 24.6324C32.1968 24.2492 32.4162 23.7294 32.4162 23.1875C32.4162 22.6455 32.1968 22.1257 31.8062 21.7425C31.4156 21.3593 30.8858 21.144 30.3334 21.144Z" fill="#262626"/>
<path d="M30.3334 41.5789H10.5465C9.99408 41.5789 9.46431 41.7942 9.0737 42.1774C8.68309 42.5607 8.46365 43.0804 8.46365 43.6224C8.46365 44.1644 8.68309 44.6841 9.0737 45.0673C9.46431 45.4506 9.99408 45.6659 10.5465 45.6659H30.3334C30.8858 45.6659 31.4156 45.4506 31.8062 45.0673C32.1968 44.6841 32.4162 44.1644 32.4162 43.6224C32.4162 43.0804 32.1968 42.5607 31.8062 42.1774C31.4156 41.7942 30.8858 41.5789 30.3334 41.5789Z" fill="#262626"/>
</svg>
