<svg width="46" height="51" viewBox="0 0 46 51" fill="none" xmlns="http://www.w3.org/2000/svg">
<path d="M45.7065 35.7688L32.3237 49.1757L25.8605 42.6885L28.0229 40.5261L32.3237 44.8029L43.5441 33.6064L45.7065 35.7688ZM21.5597 16.2352H12.3335V13.1598H21.5597V16.2352ZM21.5597 22.386H12.3335V19.3106H21.5597V22.386ZM12.3335 25.4614H21.5597V28.5368H12.3335V25.4614ZM9.25809 16.2352H6.18268V13.1598H9.25809V16.2352ZM9.25809 22.386H6.18268V19.3106H9.25809V22.386ZM6.18268 25.4614H9.25809V28.5368H6.18268V25.4614ZM24.6351 16.2352V3.93356H3.10727V46.9893H24.6351V50.0647H0.0318604V0.858154H26.8216L40.0122 14.0488V31.6122L36.9368 34.6876V16.2352H24.6351ZM27.7105 13.1598H34.7503L27.7105 6.11999V13.1598Z" fill="#2D2D2D"/>
</svg>
