<svg width="47" height="47" viewBox="0 0 47 47" fill="none" xmlns="http://www.w3.org/2000/svg">
<path d="M40.8488 0.381592C39.3035 0.381592 37.8215 0.995451 36.7288 2.08813C35.6362 3.1808 35.0223 4.66279 35.0223 6.20807C35.0339 7.73935 35.6479 9.20451 36.7314 10.2866C36.7987 10.358 36.8437 10.4475 36.8609 10.544C36.8782 10.6406 36.8669 10.7401 36.8285 10.8304L31.5653 22.4834C31.5274 22.5702 31.4649 22.6441 31.3855 22.6958C31.3061 22.7476 31.2133 22.775 31.1186 22.7747C29.7325 22.7561 28.3891 23.2546 27.3508 24.173C27.2696 24.2249 27.1752 24.2525 27.0789 24.2525C26.9825 24.2525 26.8882 24.2249 26.807 24.173L21.6603 21.59C21.5872 21.5456 21.5272 21.4827 21.4863 21.4076C21.4454 21.3326 21.425 21.2481 21.4272 21.1627C21.4922 20.2002 21.3173 19.2367 20.918 18.3585C20.5188 17.4804 19.9078 16.7151 19.1398 16.1313C18.3718 15.5476 17.4709 15.1637 16.5179 15.014C15.565 14.8644 14.5897 14.9536 13.6798 15.2739C12.7698 15.5941 11.9536 16.1353 11.3044 16.8488C10.6552 17.5623 10.1933 18.4258 9.96021 19.3618C9.72708 20.2979 9.73001 21.2772 9.96874 22.2118C10.2075 23.1465 10.6745 24.0072 11.328 24.7168C11.3849 24.7961 11.4155 24.8912 11.4155 24.9887C11.4155 25.0863 11.3849 25.1814 11.328 25.2606L6.53084 35.1074C6.48419 35.1885 6.41589 35.2551 6.33358 35.2997C6.25127 35.3443 6.15819 35.3651 6.06473 35.3599C4.90472 35.3251 3.76075 35.6375 2.77943 36.257C1.79812 36.8766 1.02419 37.7751 0.556828 38.8373C0.0894691 39.8996 -0.0500191 41.0772 0.156243 42.2193C0.362505 43.3613 0.90512 44.4158 1.71454 45.2474C2.52395 46.0791 3.56329 46.6501 4.69933 46.8872C5.83537 47.1244 7.01634 47.0169 8.09089 46.5785C9.16543 46.1401 10.0846 45.3908 10.7305 44.4267C11.3765 43.4625 11.7198 42.3274 11.7164 41.1669C11.6972 39.7244 11.1436 38.3404 10.1627 37.2826C10.1058 37.2034 10.0752 37.1083 10.0752 37.0107C10.0752 36.9131 10.1058 36.818 10.1627 36.7388L15.0375 26.8921C15.0833 26.8087 15.1508 26.7394 15.2329 26.6915C15.315 26.6437 15.4086 26.619 15.5036 26.6202C16.9264 26.6698 18.3149 26.1768 19.3879 25.2412C19.4691 25.1893 19.5635 25.1618 19.6598 25.1618C19.7562 25.1618 19.8505 25.1893 19.9317 25.2412L25.0785 27.8243C25.1665 27.8642 25.24 27.9305 25.2887 28.014C25.3374 28.0975 25.359 28.1941 25.3504 28.2904C25.2989 29.8357 25.8633 31.3381 26.9196 32.4672C27.9758 33.5963 29.4373 34.2596 30.9826 34.3111C32.5279 34.3626 34.0303 33.7982 35.1594 32.7419C36.2885 31.6856 36.9518 30.2241 37.0033 28.6788C36.9917 27.1476 36.3777 25.6824 35.2942 24.6003C35.229 24.5277 35.1854 24.4383 35.1682 24.3422C35.1511 24.2462 35.1611 24.1472 35.1971 24.0565L40.4604 12.4036C40.4818 12.3107 40.53 12.2262 40.5991 12.1606C40.6681 12.095 40.755 12.0512 40.8488 12.0345C42.3941 12.0345 43.876 11.4207 44.9687 10.328C46.0614 9.23533 46.6753 7.75335 46.6753 6.20807C46.6753 4.66279 46.0614 3.1808 44.9687 2.08813C43.876 0.995451 42.3941 0.381592 40.8488 0.381592Z" fill="#262626"/>
</svg>
