<svg width="18" height="16" viewBox="0 0 18 16" fill="none" xmlns="http://www.w3.org/2000/svg">
<path fill-rule="evenodd" clip-rule="evenodd" d="M7.304 0.340678C6.99659 0.119403 6.563 0.0159193 6.13658 0.171944C5.22219 0.506503 4.38339 0.996328 3.65194 1.609C3.30437 1.90013 3.17725 2.3267 3.21497 2.70326C3.2778 3.33059 3.16707 3.9363 2.86564 4.45839C2.56406 4.98074 2.09455 5.37963 1.51947 5.63887C1.17385 5.79468 0.867304 6.11894 0.789612 6.56675C0.708745 7.033 0.666687 7.51192 0.666687 8.00009C0.666687 8.48817 0.708745 8.96717 0.78962 9.43334C0.867312 9.88117 1.17385 10.2054 1.51948 10.3613C2.09455 10.6205 2.56406 11.0194 2.86564 11.5418C3.16706 12.0638 3.27779 12.6695 3.21497 13.2968C3.17726 13.6734 3.30438 14.1 3.65194 14.3911C4.38337 15.0038 5.22214 15.4936 6.1365 15.8281C6.56295 15.9842 6.99656 15.8807 7.30397 15.6593C7.81619 15.2907 8.3966 15.0833 9.00002 15.0833C9.60344 15.0833 10.1839 15.2907 10.6961 15.6593C11.0035 15.8807 11.4371 15.9842 11.8635 15.8281C12.7779 15.4936 13.6166 15.0038 14.348 14.3912C14.6956 14.1 14.8227 13.6734 14.785 13.2968C14.7222 12.6695 14.8329 12.0638 15.1343 11.5418C15.4359 11.0194 15.9054 10.6205 16.4805 10.3613C16.8262 10.2054 17.1328 9.88117 17.2104 9.43334C17.2913 8.96717 17.3334 8.48817 17.3334 8.00009C17.3334 7.512 17.2913 7.03309 17.2104 6.56692C17.1328 6.11907 16.8262 5.79479 16.4805 5.63899C15.9054 5.37974 15.4359 4.98085 15.1343 4.4585C14.8329 3.93639 14.7222 3.33064 14.785 2.70327C14.8228 2.32669 14.6956 1.90009 14.348 1.60894C13.6166 0.996303 12.7779 0.506494 11.8634 0.171944C11.437 0.0159277 11.0034 0.119403 10.696 0.340678C10.1839 0.709361 9.60344 0.916694 9.00002 0.916694C8.3966 0.916694 7.81619 0.709361 7.304 0.340678ZM6.50002 8C6.50002 6.61925 7.61927 5.5 9.00002 5.5C10.3808 5.5 11.5 6.61925 11.5 8C11.5 9.38075 10.3808 10.5 9.00002 10.5C7.61927 10.5 6.50002 9.38075 6.50002 8Z" fill="white" fill-opacity="0.5"/>
</svg>
