<svg width="15" height="16" viewBox="0 0 15 16" fill="none" xmlns="http://www.w3.org/2000/svg">
<ellipse cx="7.5" cy="8" rx="7.5" ry="8" fill="#FF0000"/>
<g clip-path="url(#clip0_716_1275)">
<path fill-rule="evenodd" clip-rule="evenodd" d="M5.74404 7.98829C6.91349 7.98829 7.73211 6.64265 7.73211 5.54766C7.73211 4.7561 7.12612 4.3999 6.56265 4.3999C5.27626 4.3999 4.57458 5.8379 4.57458 6.84054C4.57458 7.63209 5.18057 7.98829 5.74404 7.98829Z" fill="white"/>
<path fill-rule="evenodd" clip-rule="evenodd" d="M8.88021 7.98829C10.0497 7.98829 10.8683 6.64265 10.8683 5.54766C10.8683 4.7561 10.2623 4.3999 9.69882 4.3999C8.41241 4.3999 7.71074 5.8379 7.71074 6.84054C7.70011 7.63209 8.31673 7.98829 8.88021 7.98829Z" fill="white"/>
<path fill-rule="evenodd" clip-rule="evenodd" d="M9.42245 10.4947C8.69949 11.2731 7.72141 11.6689 6.6689 11.5898C5.33998 11.4842 4.41505 10.1913 4.23431 8.88525H4.2981C4.59578 9.7164 5.32935 10.4947 6.24365 10.6267C7.13668 10.7454 8.23172 10.2441 8.82708 9.5185L8.15729 8.88525L10.156 8.89845L9.73076 11.5502L9.42245 10.4947Z" fill="white"/>
</g>
<defs>
<clipPath id="clip0_716_1275">
<rect width="6.75" height="7.2" fill="white" transform="translate(4.125 4.3999)"/>
</clipPath>
</defs>
</svg>
