<svg width="14" height="18" viewBox="0 0 14 18" fill="none" xmlns="http://www.w3.org/2000/svg">
<path d="M2.83331 1.50008V2.33341C2.83331 3.25389 3.5795 4.00008 4.49998 4.00008H9.49998C10.4205 4.00008 11.1666 3.25389 11.1666 2.33341V1.50008H12C12.9205 1.50008 13.6666 2.24627 13.6666 3.16675V12.3334C13.6666 15.0948 11.4281 17.3334 8.66665 17.3334H1.99998C1.0795 17.3334 0.333313 16.5872 0.333313 15.6667V3.16675C0.333313 2.24627 1.0795 1.50008 1.99998 1.50008H2.83331ZM6.99998 10.6667H4.49998C4.03975 10.6667 3.66665 11.0398 3.66665 11.5001C3.66665 11.9603 4.03975 12.3334 4.49998 12.3334H6.99998C7.46023 12.3334 7.83331 11.9603 7.83331 11.5001C7.83331 11.0398 7.46023 10.6667 6.99998 10.6667ZM9.49998 7.33341H4.49998C4.03975 7.33341 3.66665 7.7065 3.66665 8.16675C3.66665 8.59412 3.98835 8.94634 4.4028 8.99448L4.49998 9.00008H9.49998C9.96023 9.00008 10.3333 8.627 10.3333 8.16675C10.3333 7.7065 9.96023 7.33341 9.49998 7.33341ZM8.66665 0.666748C9.1269 0.666748 9.49998 1.03985 9.49998 1.50008C9.49998 1.92744 9.17829 2.27967 8.76383 2.32781L8.66665 2.33341H5.33331C4.87308 2.33341 4.49998 1.96031 4.49998 1.50008C4.49998 1.07272 4.82168 0.720493 5.23613 0.672354L5.33331 0.666748H8.66665Z" fill="white" fill-opacity="0.5"/>
</svg>
