<svg width="21" height="18" viewBox="0 0 21 18" fill="none" xmlns="http://www.w3.org/2000/svg">
<g clip-path="url(#clip0_209_3072)">
<path fill-rule="evenodd" clip-rule="evenodd" d="M3.26416 11.3473V17.7082C3.26237 17.7845 3.22918 17.857 3.17168 17.9104C3.11418 17.9637 3.03696 17.9935 2.95654 17.9935H0.307617C0.227491 17.9935 0.150515 17.9639 0.0930652 17.9109C0.0356152 17.858 0.00222572 17.7858 0 17.7098L0 11.3473H3.26416ZM7.00684 3.93683e-07C7.7032 4.71509e-07 8.38392 0.19589 8.9629 0.562893C9.54188 0.929896 9.99312 1.45152 10.2595 2.0618C10.5259 2.67208 10.5956 3.34359 10.4596 3.99141C10.3236 4.63922 9.98813 5.23423 9.49561 5.70118C9.00308 6.16813 8.37563 6.48604 7.6926 6.61471C7.00958 6.74337 6.30167 6.67701 5.65841 6.42402C5.01515 6.17102 4.46544 5.74276 4.07881 5.19339C3.69218 4.64403 3.48599 3.99824 3.48633 3.33772C3.48633 2.89926 3.5774 2.46511 3.75434 2.06005C3.93129 1.655 4.19063 1.28698 4.51756 0.977022C4.8445 0.667065 5.23261 0.421244 5.65973 0.253603C6.08684 0.0859629 6.5446 -0.00021255 7.00684 3.93683e-07ZM6.70606 1.72154V1.38599H7.19312V1.71019C7.25293 1.71019 7.31274 1.71019 7.36401 1.72478C7.48877 1.73775 7.60498 1.75234 7.70581 1.77179C7.80664 1.79125 7.91431 1.80908 8.00146 1.82853V2.48667C7.86304 2.47532 7.70752 2.4656 7.53491 2.45911C7.3623 2.45263 7.20508 2.44777 7.06494 2.44777C6.98934 2.44738 6.91385 2.45335 6.83936 2.4656C6.78244 2.47278 6.72929 2.49658 6.68726 2.53368C6.66774 2.55359 6.65281 2.57713 6.64339 2.6028C6.63398 2.62847 6.63029 2.65572 6.63257 2.68282V2.72659C6.63054 2.75703 6.63597 2.7875 6.64842 2.81562C6.66087 2.84374 6.68001 2.86875 6.70435 2.88869C6.76902 2.93045 6.84683 2.94991 6.9248 2.9438H7.22217C7.40452 2.93735 7.58545 2.97648 7.74683 3.05728C7.88199 3.12804 7.99201 3.23522 8.06299 3.36527C8.13482 3.50209 8.17059 3.65339 8.16724 3.8062V3.94723C8.1861 4.16219 8.13923 4.37775 8.03223 4.56808C7.93533 4.71232 7.78557 4.81741 7.61182 4.86311C7.47519 4.89957 7.33481 4.92185 7.19312 4.92957V5.29755H6.70606V4.92471H6.66504C6.57104 4.92471 6.47705 4.91012 6.38647 4.89878C6.2959 4.88743 6.21558 4.87446 6.12329 4.85987C6.03101 4.84528 5.95239 4.82907 5.87891 4.80962V4.14986C5.98145 4.14986 6.09253 4.16607 6.21045 4.17093C6.32837 4.17579 6.44971 4.18066 6.57104 4.1839H6.91284C6.99598 4.18477 7.079 4.17771 7.16065 4.16282C7.21566 4.15295 7.26695 4.12946 7.30933 4.09474C7.32617 4.07728 7.33922 4.05684 7.34773 4.03458C7.35623 4.01233 7.36002 3.9887 7.35889 3.96506V3.91481C7.36065 3.88761 7.35515 3.86043 7.3429 3.83578C7.33065 3.81113 7.31205 3.7898 7.28882 3.77378C7.23909 3.74024 7.17885 3.72367 7.11792 3.72677H6.87866C6.59533 3.74542 6.31425 3.66784 6.08569 3.50793C5.90568 3.36311 5.81567 3.11996 5.81567 2.77846V2.64229C5.80683 2.51208 5.82932 2.38167 5.88142 2.26091C5.93353 2.14015 6.0139 2.03221 6.11646 1.94525C6.28741 1.82145 6.49183 1.74614 6.70606 1.72803V1.72154ZM0 9.27071L3.61792 6.26855L3.76147 6.4112C4.35633 6.9762 5.10369 7.37495 5.92163 7.56376L3.89307 9.27071H0ZM10.0659 6.56844C10.5786 7.09042 11.0776 7.60267 11.5886 8.08087L17.1821 2.75576L15.3809 1.04071L21 0.638689L20.6787 6.06916L18.9561 4.4303C17.7153 5.62176 14.781 8.24946 13.5403 9.42795C11.9697 10.9161 11.2212 10.9436 9.65063 9.45389L7.89551 7.60105C8.70355 7.4478 9.45323 7.09113 10.0659 6.56844ZM19.2517 7.70317V17.7115C19.2513 17.7886 19.2186 17.8624 19.161 17.9167C19.1034 17.9711 19.0254 18.0016 18.9441 18.0016H16.2952C16.214 18.0012 16.1363 17.9705 16.0787 17.9163C16.0212 17.862 15.9884 17.7884 15.9875 17.7115V10.1428C16.5002 9.67759 17.083 9.13779 17.6846 8.58826L18.939 7.44218L18.9919 7.48919C19.0725 7.56639 19.1593 7.6374 19.2517 7.70155V7.70317ZM13.9231 11.9065V17.7098C13.9222 17.7868 13.8894 17.8604 13.8319 17.9146C13.7744 17.9689 13.6966 17.9996 13.6155 18H10.9666C10.8853 18 10.8073 17.9695 10.7496 17.9151C10.692 17.8607 10.6594 17.7869 10.6589 17.7098V12.5225C10.9739 12.5949 11.297 12.6303 11.6211 12.6279C12.4476 12.6163 13.2505 12.3645 13.9214 11.9065H13.9231ZM8.59277 11.4364V17.7098C8.59232 17.7869 8.55971 17.8607 8.50207 17.9151C8.44443 17.9695 8.36645 18 8.28516 18H5.63965C5.5585 17.9996 5.48077 17.9689 5.42322 17.9146C5.36568 17.8604 5.33293 17.7868 5.33203 17.7098V10.9015C5.38672 10.8642 5.43799 10.8237 5.48926 10.7815L6.81372 9.66787L7.88013 10.7929L7.96216 10.8755C8.17749 11.0798 8.3894 11.2678 8.59619 11.4364H8.59277Z" fill="#929292"/>
</g>
<defs>
<clipPath id="clip0_209_3072">
<rect width="21" height="18" fill="white"/>
</clipPath>
</defs>
</svg>
