<svg width="352" height="275" viewBox="0 0 352 275" fill="none" xmlns="http://www.w3.org/2000/svg">
<path d="M160.881 246.343C140.541 246.05 92.8377 245.612 49.2314 245.173C30.0622 245.027 13.2343 233.919 5.18618 216.379C-2.5693 199.131 0.3573 179.691 12.649 165.659C14.1123 164.051 15.5756 162.59 16.8926 161.567C39.5737 143.588 57.4259 118.74 68.4006 89.7993C78.0584 64.0742 102.642 32.6486 164.393 28.8483C164.978 28.8483 165.564 28.8483 166.149 28.8483H167.612C193.22 28.8483 218.096 22.5632 239.606 10.4314C250.728 4.14631 263.458 0.930664 276.335 0.930664C277.506 0.930664 278.823 0.930664 279.993 1.07683C319.649 2.97698 351.256 35.4257 351.988 75.0366C352.427 99.5924 340.867 122.833 321.112 137.449C297.26 154.989 276.628 176.622 259.507 201.762C239.314 231.58 209.609 246.635 170.978 246.635C170.685 246.489 167.027 246.489 160.881 246.343Z" fill="#E7E7E7"/>
<g clip-path="url(#clip0)">
<path d="M100.646 234.973L289.384 257.154C293.487 257.154 296.769 253.868 296.769 249.761V111.335C296.769 104.969 291.641 99.6289 285.076 99.6289H100.646V234.973Z" fill="black"/>
<path fill-rule="evenodd" clip-rule="evenodd" d="M27.6127 193.573C43.6144 146.042 96.338 128.963 144.753 141.309L217.376 257.36L41.1526 244.603C31.5106 238.224 18.9965 223.615 27.6127 193.573Z" fill="#AD709C"/>
<path d="M19.8169 250.364L95.3121 235.755L286.512 226.29L286.307 242.957C286.307 249.336 281.998 254.891 275.844 256.332L211.632 273.41L19.8169 250.364Z" fill="#333333"/>
<path d="M217.582 254.479C215.94 252.833 213.889 252.01 211.632 252.01L19.8171 250.364C15.3038 250.158 11.406 254.068 11.406 258.595L10.7905 263.533C10.7905 264.562 10.7905 265.797 11.2008 266.825C12.6369 270.118 15.7141 272.175 19.2017 272.175L207.324 273.616H211.632C216.146 273.616 219.838 269.912 220.043 265.179V260.447C220.043 258.183 219.223 256.126 217.582 254.479Z" fill="#333333"/>
<path d="M294.513 253.245C292.872 251.599 290.82 250.776 288.563 250.981L214.915 252.422C210.401 252.422 206.709 256.331 206.709 261.064L206.503 265.796C206.503 266.825 206.709 268.06 207.119 269.089C208.555 272.381 211.837 274.233 215.12 274.233L285.076 272.998L289.384 272.792C293.897 272.587 297.385 268.677 297.385 264.15L297.18 259.418C297.18 256.948 296.154 254.685 294.513 253.245Z" fill="black"/>
<path d="M94.4915 238.43L277.896 234.932C282.614 234.932 286.307 231.022 286.307 226.495V107.769C286.307 103.037 282.409 99.333 277.896 99.333H101.056C95.1069 99.333 90.3885 104.066 90.3885 110.033V224.232C90.3885 230.199 88.5421 238.43 94.4915 238.43Z" fill="#333333"/>
<path d="M108.647 237.4H270.1C273.177 237.4 275.844 234.931 275.844 231.639V114.559C275.844 111.473 273.383 108.798 270.1 108.798H108.647C104.339 108.798 101.057 112.296 101.057 116.411V229.581C101.057 233.902 104.339 237.4 108.647 237.4Z" fill="white"/>
<path fill-rule="evenodd" clip-rule="evenodd" d="M91.0796 194.976L135.664 193.428C137.893 193.428 139.437 195.664 138.408 197.728L136.178 202.543C134.121 206.843 129.834 209.595 125.204 209.423L103.94 209.079" fill="#AD709C"/>
<path fill-rule="evenodd" clip-rule="evenodd" d="M135.15 227.654L131.549 223.526L136.865 223.698C141.152 222.666 141.152 215.958 137.208 213.723L104.97 195.663C102.912 194.459 100.511 194.115 98.2822 194.459L33.6347 204.263C33.6347 204.263 29.8622 243.649 40.1509 246.057C84.7354 256.721 93.3093 235.394 93.3093 235.394C96.5674 235.566 99.654 236.941 101.883 239.349C108.914 246.917 118.517 251.389 128.805 251.905C133.264 252.077 135.665 246.745 132.406 243.477L126.576 236.941L134.121 237.973C138.923 237.285 139.094 230.406 135.15 227.654Z" fill="#AD709C"/>
<path d="M129.148 252.42C128.977 252.42 128.977 252.42 128.805 252.42C118.345 251.904 108.571 247.432 101.369 239.692C99.311 237.457 96.5674 236.253 93.6522 235.909C91.5945 238.833 76.5044 257.752 39.6365 246.572C39.2935 246.4 39.1221 246.056 39.1221 245.712C39.2935 245.368 39.6365 245.196 39.9795 245.196C78.5621 256.892 92.4519 235.049 92.6234 234.877C92.7948 234.705 92.9663 234.533 93.3093 234.533C96.7388 234.705 99.9969 236.253 102.398 238.661C109.257 246.056 118.688 250.528 128.805 250.872C130.863 250.872 132.235 249.668 132.749 248.292C133.264 247.088 133.435 245.196 131.892 243.648L106.856 219.225C104.627 216.99 101.54 215.614 98.2822 215.27C97.9392 215.27 97.5962 214.926 97.5962 214.41C97.5962 213.894 97.9392 213.722 98.4536 213.722C101.883 214.066 105.313 215.614 107.885 218.021L133.092 242.616C134.807 244.336 135.322 246.744 134.293 248.808C133.435 251.216 131.378 252.42 129.148 252.42Z" fill="#50314D"/>
<path d="M133.607 237.972C133.435 237.972 133.435 237.972 133.264 237.972L126.405 237.456C126.062 237.456 125.719 237.112 125.719 236.768C125.719 236.424 126.062 236.08 126.405 236.08L133.092 236.596C135.15 236.768 136.522 235.392 137.036 234.016C137.894 232.812 137.894 230.92 136.351 229.372L111.143 204.777C108.914 202.541 105.827 201.165 102.569 200.821C102.226 200.821 101.883 200.477 101.883 199.961C101.883 199.617 102.226 199.273 102.741 199.273C106.17 199.617 109.6 201.165 112.172 203.573L137.379 228.168C139.094 229.888 139.609 232.296 138.58 234.36C137.722 236.768 135.836 237.972 133.607 237.972Z" fill="#50314D"/>
<path d="M135.664 224.387C135.493 224.387 135.493 224.387 135.321 224.387L131.377 224.215C131.034 224.215 130.691 223.871 130.691 223.527C130.691 223.183 131.034 222.839 131.377 222.839L135.15 223.183C137.208 223.355 138.58 221.979 139.094 220.603C139.608 219.399 139.78 217.508 138.237 215.96L107.37 196.181C101.54 194.461 93.8236 194.977 81.6486 198.072C81.3057 198.244 80.9627 197.9 80.7912 197.556C80.6197 197.212 80.9627 196.868 81.3057 196.696C93.9951 193.601 101.883 193.085 107.885 194.805H108.056L139.094 214.756C140.98 216.476 141.323 218.883 140.466 221.119C139.78 223.183 137.894 224.387 135.664 224.387Z" fill="#50314D"/>
<path fill-rule="evenodd" clip-rule="evenodd" d="M171.423 165.59C182.295 165.796 190.091 156.125 190.296 148.1C190.296 142.339 184.757 139.664 179.423 139.458C167.525 139.252 160.755 149.746 160.55 156.948C160.55 162.709 166.089 165.384 171.423 165.59ZM219.838 148.512C219.633 156.536 212.042 166.207 200.964 166.002C195.63 166.002 190.091 163.121 190.091 157.36C190.296 150.158 196.861 139.664 208.965 139.87C214.299 140.075 219.838 142.545 219.838 148.512ZM179.013 191.928C188.655 192.751 197.477 190.076 204.247 184.52L206.913 192.134L211.222 172.998L192.963 172.586L199.118 177.319C193.579 182.463 183.526 185.961 175.32 184.932C166.909 183.903 160.344 178.142 157.677 172.175H157.062C158.703 181.434 166.909 190.899 179.013 191.928Z" fill="#E4122C"/>
<g clip-path="url(#clip1)">
<path d="M69.6257 101.432L91.9349 81.833H133.173C133.173 81.833 133.173 81.833 133.173 82.1052L109.061 103.065V103.337H148.947L173.51 81.833H214.973C214.973 81.833 214.973 81.833 214.973 82.1052L192.664 101.704C191.312 102.793 190.411 104.698 190.411 106.604C190.411 121.848 181.397 131.375 169.904 131.375C159.313 131.375 149.398 106.876 149.398 106.876V107.693C148.046 121.303 138.807 131.375 128.441 131.375C117.85 131.375 109.286 120.759 107.934 107.421H107.709C106.357 121.031 97.7938 131.375 87.2026 131.375C76.6114 131.375 68.0483 120.759 66.6963 107.148C66.6963 107.148 66.6963 107.148 66.6963 106.876C67.1469 104.698 68.2737 102.793 69.6257 101.432Z" fill="white"/>
<path d="M192.213 102.249C191.087 103.338 190.411 104.699 190.411 106.332C190.411 106.604 190.411 106.877 190.411 106.877C190.411 122.12 181.397 131.647 169.904 131.647C159.313 131.647 150.75 121.304 149.398 107.693C149.173 107.693 148.947 103.61 148.947 103.61L192.213 102.249Z" fill="#CBCBCB"/>
<path d="M107.935 106.877C107.935 122.12 96.8927 131.648 85.4001 131.648C79.5411 131.648 74.5835 127.564 70.978 122.12C63.5416 110.688 67.8232 103.338 68.0485 103.338C74.3582 103.338 108.385 103.61 108.385 103.61L107.935 106.877Z" fill="#CBCBCB"/>
<path d="M149.172 106.877C149.172 122.12 138.13 131.648 126.638 131.648C120.779 131.648 115.821 127.564 112.216 122.12C104.779 110.688 109.061 103.338 109.286 103.338C115.596 103.338 149.623 103.61 149.623 103.61L149.172 106.877Z" fill="#C40029"/>
<path d="M99.1457 72.8506H207.311C211.593 72.8506 214.748 76.9337 214.748 81.8334H91.4839C91.7093 76.9337 95.0894 72.8506 99.1457 72.8506Z" fill="#C40029"/>
<path d="M132.046 81.833H173.51L148.947 103.337L108.385 103.61L132.046 81.833Z" fill="#E90029"/>
</g>
<g clip-path="url(#clip2)">
<path d="M152.408 101.432L174.718 81.833H215.956C215.956 81.833 215.956 81.833 215.956 82.1052L191.844 103.065V103.337H231.73L256.292 81.833H297.756C297.756 81.833 297.756 81.833 297.756 82.1052L275.447 101.704C274.095 102.793 273.193 104.698 273.193 106.604C273.193 121.848 264.179 131.375 252.687 131.375C242.096 131.375 232.181 106.876 232.181 106.876V107.693C230.828 121.303 221.589 131.375 211.223 131.375C200.632 131.375 192.069 120.759 190.717 107.421H190.492C189.14 121.031 180.577 131.375 169.985 131.375C159.394 131.375 150.831 120.759 149.479 107.148C149.479 107.148 149.479 107.148 149.479 106.876C149.93 104.698 151.056 102.793 152.408 101.432Z" fill="white"/>
<path d="M274.996 102.249C273.869 103.338 273.193 104.699 273.193 106.332C273.193 106.604 273.193 106.877 273.193 106.877C273.193 122.12 264.18 131.647 252.687 131.647C242.096 131.647 233.533 121.304 232.181 107.693C231.955 107.693 231.73 103.61 231.73 103.61L274.996 102.249Z" fill="#CBCBCB"/>
<path d="M190.717 106.877C190.717 122.12 179.675 131.648 168.183 131.648C162.324 131.648 157.366 127.564 153.761 122.12C146.324 110.688 150.606 103.338 150.831 103.338C157.141 103.338 191.168 103.61 191.168 103.61L190.717 106.877Z" fill="#CBCBCB"/>
<path d="M231.955 106.877C231.955 122.12 220.913 131.648 209.421 131.648C203.562 131.648 198.604 127.564 194.999 122.12C187.562 110.688 191.844 103.338 192.069 103.338C198.379 103.338 232.406 103.61 232.406 103.61L231.955 106.877Z" fill="#C40029"/>
<path d="M181.928 72.8506H290.094C294.375 72.8506 297.53 76.9337 297.53 81.8334H174.267C174.492 76.9337 177.872 72.8506 181.928 72.8506Z" fill="#C40029"/>
<path d="M214.829 81.833H256.292L231.73 103.337L191.168 103.61L214.829 81.833Z" fill="#E90029"/>
</g>
</g>
<defs>
<clipPath id="clip0">
<rect width="318.281" height="247.127" fill="white" transform="translate(10.8442 26.9443)"/>
</clipPath>
<clipPath id="clip1">
<rect width="148.277" height="151.348" fill="white" transform="matrix(-1 0 0 1 214.973 72.8506)"/>
</clipPath>
<clipPath id="clip2">
<rect width="148.277" height="151.348" fill="white" transform="matrix(-1 0 0 1 297.756 72.8506)"/>
</clipPath>
</defs>
</svg>
