<svg width="20" height="22" viewBox="0 0 20 22" fill="none" xmlns="http://www.w3.org/2000/svg">
<path d="M13.398 3.40994C13.9403 3.04751 14.5708 2.83916 15.2222 2.80714C15.8737 2.77513 16.5216 2.92064 17.0968 3.22816C17.672 3.53567 18.1529 3.99364 18.4881 4.55315C18.8233 5.11266 19.0002 5.7527 19 6.40494C19.0005 7.32112 18.6517 8.20303 18.0246 8.87099C17.3975 9.53894 16.5394 9.94268 15.625 9.99994H15M13.398 3.40994C13.1505 2.70628 12.6907 2.0968 12.0821 1.66565C11.4734 1.23449 10.7459 1.00293 10 1.00293C9.2541 1.00293 8.52659 1.23449 7.91793 1.66565C7.30926 2.0968 6.84946 2.70628 6.602 3.40994M13.398 3.40994C13.6345 4.08336 13.6655 4.81188 13.487 5.50294M6.602 3.40994C7.0605 3.71683 7.44234 4.12501 7.718 4.60294M6.602 3.40994C6.05973 3.04751 5.42921 2.83916 4.77776 2.80714C4.12631 2.77513 3.4784 2.92064 2.90321 3.22816C2.32801 3.53567 1.84714 3.99364 1.51194 4.55315C1.17674 5.11266 0.999794 5.7527 1 6.40494C0.999482 7.32112 1.3483 8.20303 1.97537 8.87099C2.60245 9.53894 3.46061 9.94268 4.375 9.99994H5M15 12.9999V8.99994M5 12.9999V8.99994M16 13.4999C14.401 12.8779 12.3 12.4999 10 12.4999C7.7 12.4999 5.6 12.8779 4 13.4999M15 15.9999C15 17.326 14.4732 18.5978 13.5355 19.5355C12.5979 20.4732 11.3261 20.9999 10 20.9999C8.67392 20.9999 7.40215 20.4732 6.46447 19.5355C5.52678 18.5978 5 17.326 5 15.9999" stroke="black" stroke-width="1.5" stroke-linecap="round" stroke-linejoin="round"/>
</svg>
