<svg width="23" height="22" viewBox="0 0 23 22" fill="none" xmlns="http://www.w3.org/2000/svg">
<path d="M7.50003 1C6.50003 1 6.68503 3.417 5.30003 4.462C4.26803 5.239 2.39303 4.414 1.62803 5.721C1.39503 6.119 1.51003 6.645 1.74003 7.696L3.73003 16.785C4.12003 18.567 4.35803 20.743 6.50003 21H16.5C18.641 20.743 18.88 18.567 19.27 16.785L21.26 7.696C21.49 6.645 21.605 6.119 21.372 5.721C20.607 4.414 18.732 5.239 17.701 4.461C16.315 3.418 16.5 1 15.5 1M11.509 10H11.5M11.509 13.5H11.5M11.509 17H11.5" stroke="black" stroke-width="1.5" stroke-linecap="round" stroke-linejoin="round"/>
<path d="M7.22399 1.11903C8.15599 0.595029 9.44099 1.94103 10.104 2.44403C11.011 3.13103 11.464 3.47403 11.497 3.92803C11.5004 3.97597 11.5004 4.02409 11.497 4.07203C11.464 4.52503 11.011 4.86903 10.105 5.55603C9.44099 6.05903 8.15499 7.40503 7.22499 6.88103C6.25899 6.33903 6.25799 1.66103 7.22399 1.11903Z" stroke="black" stroke-width="1.5" stroke-linecap="round" stroke-linejoin="round"/>
<path d="M15.7761 1.11903C14.8441 0.595029 13.5591 1.94103 12.8961 2.44403C11.9891 3.13103 11.5361 3.47403 11.5031 3.92803C11.4996 3.97597 11.4996 4.02409 11.5031 4.07203C11.5361 4.52503 11.9891 4.86903 12.8951 5.55603C13.5591 6.05903 14.8451 7.40503 15.7751 6.88103C16.7411 6.33903 16.7421 1.66103 15.7761 1.11903Z" stroke="black" stroke-width="1.5" stroke-linecap="round" stroke-linejoin="round"/>
</svg>
