<svg width="35" height="36" viewBox="0 0 35 36" fill="none" xmlns="http://www.w3.org/2000/svg">
<path d="M15.75 4.58333V2.25C15.75 1.78587 15.9344 1.34075 16.2626 1.01256C16.5908 0.684375 17.0359 0.5 17.5 0.5C17.9641 0.5 18.4092 0.684375 18.7374 1.01256C19.0656 1.34075 19.25 1.78587 19.25 2.25V4.58333C19.25 5.04746 19.0656 5.49258 18.7374 5.82077C18.4092 6.14896 17.9641 6.33333 17.5 6.33333C17.0359 6.33333 16.5908 6.14896 16.2626 5.82077C15.9344 5.49258 15.75 5.04746 15.75 4.58333ZM27.4167 18C27.4167 19.9613 26.8351 21.8786 25.7454 23.5094C24.6557 25.1402 23.107 26.4112 21.2949 27.1618C19.4829 27.9124 17.489 28.1088 15.5654 27.7261C13.6417 27.3435 11.8747 26.399 10.4879 25.0121C9.10099 23.6253 8.15652 21.8583 7.77388 19.9346C7.39124 18.011 7.58763 16.0171 8.33819 14.2051C9.08876 12.393 10.3598 10.8443 11.9906 9.75459C13.6214 8.66494 15.5387 8.08333 17.5 8.08333C20.1292 8.08604 22.65 9.13169 24.5092 10.9908C26.3683 12.85 27.414 15.3708 27.4167 18ZM23.9167 18C23.9167 16.7309 23.5403 15.4903 22.8353 14.4351C22.1302 13.3799 21.128 12.5574 19.9556 12.0718C18.7831 11.5861 17.4929 11.459 16.2482 11.7066C15.0035 11.9542 13.8601 12.5653 12.9627 13.4627C12.0653 14.3601 11.4542 15.5035 11.2066 16.7482C10.959 17.9929 11.0861 19.2831 11.5718 20.4556C12.0574 21.628 12.8799 22.6302 13.9351 23.3353C14.9903 24.0403 16.2309 24.4167 17.5 24.4167C19.2012 24.4147 20.8322 23.7381 22.0351 22.5351C23.2381 21.3322 23.9147 19.7012 23.9167 18ZM6.34521 9.32146C6.50799 9.48424 6.70125 9.61337 6.91393 9.70147C7.12662 9.78957 7.35458 9.83491 7.58479 9.83491C7.815 9.83491 8.04296 9.78957 8.25565 9.70147C8.46834 9.61337 8.66159 9.48424 8.82438 9.32146C8.98716 9.15867 9.11629 8.96542 9.20438 8.75273C9.29248 8.54004 9.33783 8.31209 9.33783 8.08187C9.33783 7.85166 9.29248 7.6237 9.20438 7.41102C9.11629 7.19833 8.98716 7.00508 8.82438 6.84229L7.07437 5.09229C6.74562 4.76353 6.29973 4.57884 5.83479 4.57884C5.36986 4.57884 4.92397 4.76353 4.59521 5.09229C4.26645 5.42105 4.08176 5.86694 4.08176 6.33187C4.08176 6.79681 4.26645 7.2427 4.59521 7.57146L6.34521 9.32146ZM6.34521 26.6756L4.59521 28.4256C4.43242 28.5884 4.3033 28.7817 4.2152 28.9943C4.1271 29.207 4.08176 29.435 4.08176 29.6652C4.08176 29.8954 4.1271 30.1234 4.2152 30.3361C4.3033 30.5488 4.43242 30.742 4.59521 30.9048C4.92397 31.2335 5.36986 31.4182 5.83479 31.4182C6.065 31.4182 6.29296 31.3729 6.50565 31.2848C6.71834 31.1967 6.91159 31.0676 7.07437 30.9048L8.82438 29.1548C9.15313 28.826 9.33783 28.3801 9.33783 27.9152C9.33783 27.4503 9.15313 27.0044 8.82438 26.6756C8.49562 26.3469 8.04973 26.1622 7.58479 26.1622C7.11986 26.1622 6.67397 26.3469 6.34521 26.6756ZM27.4167 9.83333C27.6465 9.83351 27.8742 9.7884 28.0867 9.70057C28.2991 9.61274 28.4922 9.48392 28.6548 9.32146L30.4048 7.57146C30.5676 7.40867 30.6967 7.21542 30.7848 7.00273C30.8729 6.79004 30.9182 6.56209 30.9182 6.33187C30.9182 6.10166 30.8729 5.8737 30.7848 5.66102C30.6967 5.44833 30.5676 5.25508 30.4048 5.09229C30.242 4.92951 30.0488 4.80038 29.8361 4.71228C29.6234 4.62418 29.3954 4.57884 29.1652 4.57884C28.935 4.57884 28.707 4.62418 28.4943 4.71228C28.2817 4.80038 28.0884 4.92951 27.9256 5.09229L26.1756 6.84229C25.9294 7.08706 25.7616 7.39952 25.6935 7.73994C25.6253 8.08036 25.66 8.43335 25.793 8.75402C25.9261 9.07468 26.1515 9.34853 26.4406 9.54072C26.7297 9.73291 27.0695 9.83477 27.4167 9.83333ZM28.6548 26.6785C28.326 26.3498 27.8801 26.1651 27.4152 26.1651C26.9503 26.1651 26.5044 26.3498 26.1756 26.6785C25.8469 27.0073 25.6622 27.4532 25.6622 27.9181C25.6622 28.3831 25.8469 28.8289 26.1756 29.1577L27.9256 30.9077C28.2544 31.2365 28.7003 31.4212 29.1652 31.4212C29.6301 31.4212 30.076 31.2365 30.4048 30.9077C30.7335 30.5789 30.9182 30.1331 30.9182 29.6681C30.9182 29.2032 30.7335 28.7573 30.4048 28.4285L28.6548 26.6785ZM5.83333 18C5.83333 17.5359 5.64896 17.0908 5.32077 16.7626C4.99258 16.4344 4.54746 16.25 4.08333 16.25H1.75C1.28587 16.25 0.840752 16.4344 0.512563 16.7626C0.184375 17.0908 0 17.5359 0 18C0 18.4641 0.184375 18.9092 0.512563 19.2374C0.840752 19.5656 1.28587 19.75 1.75 19.75H4.08333C4.54746 19.75 4.99258 19.5656 5.32077 19.2374C5.64896 18.9092 5.83333 18.4641 5.83333 18ZM17.5 29.6667C17.0359 29.6667 16.5908 29.851 16.2626 30.1792C15.9344 30.5074 15.75 30.9525 15.75 31.4167V33.75C15.75 34.2141 15.9344 34.6592 16.2626 34.9874C16.5908 35.3156 17.0359 35.5 17.5 35.5C17.9641 35.5 18.4092 35.3156 18.7374 34.9874C19.0656 34.6592 19.25 34.2141 19.25 33.75V31.4167C19.25 30.9525 19.0656 30.5074 18.7374 30.1792C18.4092 29.851 17.9641 29.6667 17.5 29.6667ZM33.25 16.25H30.9167C30.4525 16.25 30.0074 16.4344 29.6792 16.7626C29.351 17.0908 29.1667 17.5359 29.1667 18C29.1667 18.4641 29.351 18.9092 29.6792 19.2374C30.0074 19.5656 30.4525 19.75 30.9167 19.75H33.25C33.7141 19.75 34.1592 19.5656 34.4874 19.2374C34.8156 18.9092 35 18.4641 35 18C35 17.5359 34.8156 17.0908 34.4874 16.7626C34.1592 16.4344 33.7141 16.25 33.25 16.25Z" fill="white"/>
</svg>
