<svg width="34" height="35" viewBox="0 0 34 35" fill="none" xmlns="http://www.w3.org/2000/svg">
<g clip-path="url(#clip0_168_584)">
<path d="M17 3.33337C14.37 3.33337 11.8476 4.37816 9.9879 6.2379C8.12817 8.09763 7.08338 10.62 7.08338 13.25V18.248C7.08358 18.4678 7.03266 18.6846 6.93463 18.8813L4.50221 23.7447C4.38339 23.9823 4.32728 24.2463 4.33922 24.5117C4.35116 24.7771 4.43074 25.035 4.57042 25.261C4.71009 25.487 4.90521 25.6735 5.13726 25.8029C5.3693 25.9322 5.63055 26.0001 5.89621 26H28.1039C28.3695 26.0001 28.6308 25.9322 28.8628 25.8029C29.0949 25.6735 29.29 25.487 29.4297 25.261C29.5693 25.035 29.6489 24.7771 29.6609 24.5117C29.6728 24.2463 29.6167 23.9823 29.4979 23.7447L27.0669 18.8813C26.9684 18.6847 26.9169 18.4679 26.9167 18.248V13.25C26.9167 10.62 25.8719 8.09763 24.0122 6.2379C22.1524 4.37816 19.6301 3.33337 17 3.33337ZM17 30.25C16.1208 30.2503 15.2632 29.978 14.5452 29.4705C13.8272 28.9631 13.2841 28.2456 12.9909 27.4167H21.0092C20.7159 28.2456 20.1729 28.9631 19.4549 29.4705C18.7369 29.978 17.8793 30.2503 17 30.25Z" fill="white"/>
</g>
<circle cx="24.5" cy="7" r="4.5" fill="#FF0000"/>
<defs>
<clipPath id="clip0_168_584">
<rect width="34" height="34" fill="white" transform="translate(0 0.5)"/>
</clipPath>
</defs>
</svg>
